<svg xmlns="http://www.w3.org/2000/svg" viewBox="0 0 360 480">
  <defs><linearGradient id="bg" x1="0" x2="1" y1="0" y2="1"><stop stop-color="#f8fff7"/><stop offset="1" stop-color="#dff2df"/></linearGradient><filter id="s"><feDropShadow dx="0" dy="18" stdDeviation="14" flood-opacity=".22"/></filter></defs>
  <rect width="360" height="480" fill="url(#bg)"/>
  <g filter="url(#s)" transform="translate(108 48) rotate(-10 82 176)">
    <rect width="164" height="350" rx="30" fill="#111"/>
    <rect x="13" y="17" width="138" height="316" rx="20" fill="#fff"/>
    <rect x="32" y="48" width="100" height="14" rx="7" fill="#dcefe0"/>
    <rect x="32" y="82" width="100" height="52" rx="12" fill="#ecf8ee"/>
    <path d="M44 120 68 98l22 13 30-38" fill="none" stroke="#238f32" stroke-width="8" stroke-linecap="round" stroke-linejoin="round"/>
    <g transform="translate(32 160)">
      <rect width="100" height="26" rx="13" fill="#f0f7f0"/><circle cx="14" cy="13" r="6" fill="#238f32"/><rect x="28" y="9" width="52" height="8" rx="4" fill="#b7d7bc"/>
      <rect y="44" width="100" height="26" rx="13" fill="#f0f7f0"/><circle cx="14" cy="57" r="6" fill="#238f32"/><rect x="28" y="53" width="64" height="8" rx="4" fill="#b7d7bc"/>
      <rect y="88" width="100" height="26" rx="13" fill="#f0f7f0"/><circle cx="14" cy="101" r="6" fill="#238f32"/><rect x="28" y="97" width="46" height="8" rx="4" fill="#b7d7bc"/>
    </g>
  </g>
  <g transform="translate(40 342) scale(.6)">
    <circle cx="70" cy="70" r="64" fill="#fff" stroke="#151515" stroke-width="7"/><path d="M70 25 98 52 87 90H53L42 52Z" fill="#111"/><path d="M69 25 26 24 42 52Z" fill="#111"/><path d="M98 52 118 91 87 90Z" fill="#111"/><path d="M53 90 25 117 18 78Z" fill="#111"/><path d="M87 90 112 118 70 130Z" fill="#111"/>
  </g>
</svg>
