<svg xmlns="http://www.w3.org/2000/svg" viewBox="0 0 640 480">
  <defs><linearGradient id="bg" x1="0" x2="1" y1="0" y2="1"><stop stop-color="#dcf2ff"/><stop offset=".55" stop-color="#f7fff8"/><stop offset=".56" stop-color="#a8d47d"/><stop offset="1" stop-color="#74ab4f"/></linearGradient><filter id="s"><feDropShadow dx="0" dy="14" stdDeviation="10" flood-opacity=".2"/></filter></defs>
  <rect width="640" height="480" fill="url(#bg)"/>
  <g opacity=".28"><ellipse cx="170" cy="235" rx="170" ry="38" fill="#558b47"/><ellipse cx="470" cy="242" rx="180" ry="42" fill="#558b47"/></g>
  <g filter="url(#s)">
    <g transform="translate(155 120)">
      <circle cx="60" cy="34" r="28" fill="#d69a70"/><path d="M31 31c7-35 60-35 58 0-14 9-39 10-58 0Z" fill="#151515"/>
      <path d="M30 70h62l16 100H16Z" fill="#1168d5"/><path d="M29 94-18 154" stroke="#d69a70" stroke-width="17" stroke-linecap="round"/><path d="M94 92l52 44" stroke="#d69a70" stroke-width="17" stroke-linecap="round"/>
      <path d="M42 170 8 252" stroke="#1168d5" stroke-width="22" stroke-linecap="round"/><path d="M80 170l44 76" stroke="#1168d5" stroke-width="22" stroke-linecap="round"/>
    </g>
    <g transform="translate(350 132)">
      <circle cx="60" cy="34" r="28" fill="#d69a70"/><path d="M31 31c7-35 60-35 58 0-14 9-39 10-58 0Z" fill="#151515"/>
      <path d="M30 70h62l16 100H16Z" fill="#1ea34a"/><path d="M28 94-16 138" stroke="#d69a70" stroke-width="17" stroke-linecap="round"/><path d="M94 92l56 58" stroke="#d69a70" stroke-width="17" stroke-linecap="round"/>
      <path d="M43 170 17 252" stroke="#111" stroke-width="22" stroke-linecap="round"/><path d="M82 170l34 79" stroke="#111" stroke-width="22" stroke-linecap="round"/>
    </g>
    <g transform="translate(286 326) scale(.72)">
      <circle cx="70" cy="70" r="64" fill="#fff" stroke="#151515" stroke-width="7"/><path d="M70 25 98 52 87 90H53L42 52Z" fill="#111"/><path d="M69 25 26 24 42 52Z" fill="#111"/><path d="M98 52 118 91 87 90Z" fill="#111"/><path d="M53 90 25 117 18 78Z" fill="#111"/><path d="M87 90 112 118 70 130Z" fill="#111"/>
    </g>
  </g>
</svg>
