<svg xmlns="http://www.w3.org/2000/svg" viewBox="0 0 640 480">
  <defs><linearGradient id="bg" x1="0" x2="1" y1="0" y2="1"><stop stop-color="#dff3ff"/><stop offset=".55" stop-color="#fff"/><stop offset=".56" stop-color="#acd281"/><stop offset="1" stop-color="#76ad55"/></linearGradient><filter id="s"><feDropShadow dx="0" dy="14" stdDeviation="12" flood-opacity=".18"/></filter></defs>
  <rect width="640" height="480" fill="url(#bg)"/>
  <g filter="url(#s)">
    <g transform="translate(110 116)">
      <circle cx="72" cy="46" r="38" fill="#c98d66"/><path d="M35 42c10-45 73-48 76 3-24 12-52 12-76-3Z" fill="#111"/>
      <path d="M40 92h70c36 0 62 30 62 70v108H-22V162c0-40 26-70 62-70Z" fill="#242b2f"/>
      <path d="M128 176 247 216" stroke="#c98d66" stroke-width="24" stroke-linecap="round"/>
    </g>
    <g transform="translate(352 130)">
      <circle cx="56" cy="34" r="29" fill="#d69a70"/><path d="M27 31c8-36 60-36 58 0-15 8-37 9-58 0Z" fill="#151515"/>
      <path d="M25 72h64l16 116H9Z" fill="#1168d5"/>
      <path d="M42 190 19 265" stroke="#1168d5" stroke-width="22" stroke-linecap="round"/><path d="M79 190l39 68" stroke="#1168d5" stroke-width="22" stroke-linecap="round"/>
    </g>
    <g transform="translate(312 296) scale(.58)">
      <circle cx="70" cy="70" r="64" fill="#fff" stroke="#151515" stroke-width="7"/><path d="M70 25 98 52 87 90H53L42 52Z" fill="#111"/><path d="M69 25 26 24 42 52Z" fill="#111"/><path d="M98 52 118 91 87 90Z" fill="#111"/><path d="M53 90 25 117 18 78Z" fill="#111"/><path d="M87 90 112 118 70 130Z" fill="#111"/>
    </g>
  </g>
</svg>
